<svg id="instagram_1_" data-name="instagram (1)" xmlns="http://www.w3.org/2000/svg" width="50.703" height="50.703" viewBox="0 0 50.703 50.703">
  <path id="Path_1" data-name="Path 1" d="M216.7,211.852A4.852,4.852,0,1,1,211.852,207,4.852,4.852,0,0,1,216.7,211.852Zm0,0" transform="translate(-186.501 -186.501)" fill="#585858"/>
  <path id="Path_2" data-name="Path 2" d="M158.767,138.837A4.821,4.821,0,0,0,156,136.075a8.054,8.054,0,0,0-2.7-.5c-1.535-.07-2-.085-5.883-.085s-4.348.015-5.883.085a8.06,8.06,0,0,0-2.7.5,4.823,4.823,0,0,0-2.763,2.763,8.057,8.057,0,0,0-.5,2.7c-.07,1.535-.085,2-.085,5.883s.015,4.347.085,5.883a8.054,8.054,0,0,0,.5,2.7,4.821,4.821,0,0,0,2.763,2.763,8.044,8.044,0,0,0,2.7.5c1.535.07,1.995.085,5.882.085s4.348-.015,5.883-.085a8.044,8.044,0,0,0,2.7-.5,4.821,4.821,0,0,0,2.763-2.763,8.062,8.062,0,0,0,.5-2.7c.07-1.535.085-2,.085-5.883s-.015-4.348-.085-5.883A8.045,8.045,0,0,0,158.767,138.837ZM147.419,154.9a7.475,7.475,0,1,1,7.475-7.475A7.475,7.475,0,0,1,147.419,154.9Zm7.771-13.5a1.747,1.747,0,1,1,1.747-1.747A1.747,1.747,0,0,1,155.19,141.4Zm0,0" transform="translate(-122.068 -122.071)" fill="#585858"/>
  <path id="Path_3" data-name="Path 3" d="M25.351,0A25.351,25.351,0,1,0,50.7,25.351,25.354,25.354,0,0,0,25.351,0ZM39.821,31.353a10.68,10.68,0,0,1-.677,3.534,7.443,7.443,0,0,1-4.257,4.257,10.688,10.688,0,0,1-3.533.677c-1.552.071-2.048.088-6,.088s-4.449-.017-6-.088a10.688,10.688,0,0,1-3.533-.677,7.443,7.443,0,0,1-4.257-4.257,10.678,10.678,0,0,1-.677-3.533c-.072-1.553-.088-2.049-.088-6s.017-4.449.088-6a10.681,10.681,0,0,1,.676-3.534,7.448,7.448,0,0,1,4.258-4.257,10.69,10.69,0,0,1,3.534-.677c1.552-.071,2.048-.088,6-.088s4.449.017,6,.088a10.692,10.692,0,0,1,3.534.676,7.445,7.445,0,0,1,4.257,4.258,10.679,10.679,0,0,1,.677,3.534c.071,1.552.087,2.048.087,6S39.892,29.8,39.821,31.353Zm0,0" transform="translate(0 0)" fill="#585858"/>
</svg>
