<svg xmlns="http://www.w3.org/2000/svg" width="51.015" height="51.015" viewBox="0 0 51.015 51.015">
  <path id="twitter" d="M25.507,0A25.507,25.507,0,1,0,51.015,25.507,25.51,25.51,0,0,0,25.507,0ZM37.154,19.888q.017.377.017.757c0,7.736-5.889,16.657-16.658,16.658h0a16.572,16.572,0,0,1-8.974-2.63,11.907,11.907,0,0,0,1.4.081,11.747,11.747,0,0,0,7.272-2.506,5.861,5.861,0,0,1-5.47-4.066,5.835,5.835,0,0,0,2.644-.1,5.856,5.856,0,0,1-4.7-5.739c0-.026,0-.05,0-.075A5.814,5.814,0,0,0,15.337,23a5.86,5.86,0,0,1-1.813-7.816A16.622,16.622,0,0,0,25.592,21.3a5.858,5.858,0,0,1,9.977-5.339,11.743,11.743,0,0,0,3.718-1.421,5.878,5.878,0,0,1-2.575,3.238,11.677,11.677,0,0,0,3.362-.922,11.9,11.9,0,0,1-2.92,3.032Zm0,0" fill="#585858"/>
</svg>
