<svg id="youtube" xmlns="http://www.w3.org/2000/svg" width="49.135" height="49.135" viewBox="0 0 49.135 49.135">
  <ellipse id="Ellipse_1" data-name="Ellipse 1" cx="24.568" cy="24.568" rx="24.568" ry="24.568" transform="translate(0 0)" fill="#585858"/>
  <path id="Path_5" data-name="Path 5" d="M104.122,69.38a24.569,24.569,0,0,1-34.746,34.746Z" transform="translate(-62.183 -62.187)" fill="#585858"/>
  <path id="Path_6" data-name="Path 6" d="M165.069,179.307,152.91,167.148l-14.341,1.633-8.674,13.429L146.1,198.419A24.6,24.6,0,0,0,165.069,179.307Z" transform="translate(-116.428 -149.819)" fill="#585858"/>
  <path id="Path_7" data-name="Path 7" d="M145.37,159a3.728,3.728,0,0,0-3.727-3.729H124.158A3.728,3.728,0,0,0,120.432,159v10a3.727,3.727,0,0,0,3.726,3.729h17.485A3.728,3.728,0,0,0,145.37,169V159Zm-14.964,9.218v-9.391l7.122,4.7Z" transform="translate(-107.946 -139.174)" fill="#fff"/>
</svg>
